<?xml version="1.0" encoding="UTF-8" standalone="no"?>
<!-- Created with Inkscape (http://www.inkscape.org/) -->

<svg
   width="138.71346mm"
   height="151.6265mm"
   viewBox="0 0 138.71346 151.62649"
   version="1.1"
   id="svg1"
   xml:space="preserve"
   inkscape:version="1.4.2 (2aeb623e1d, 2025-05-12)"
   sodipodi:docname="logo_vertical.svg"
   inkscape:export-filename="../7e31c16b/logo_vertical.png"
   inkscape:export-xdpi="600"
   inkscape:export-ydpi="600"
   xmlns:inkscape="http://www.inkscape.org/namespaces/inkscape"
   xmlns:sodipodi="http://sodipodi.sourceforge.net/DTD/sodipodi-0.dtd"
   xmlns:xlink="http://www.w3.org/1999/xlink"
   xmlns="http://www.w3.org/2000/svg"
   xmlns:svg="http://www.w3.org/2000/svg"><sodipodi:namedview
     id="namedview1"
     pagecolor="#ffffff"
     bordercolor="#000000"
     borderopacity="0.25"
     inkscape:showpageshadow="2"
     inkscape:pageopacity="0.0"
     inkscape:pagecheckerboard="0"
     inkscape:deskcolor="#d1d1d1"
     inkscape:document-units="mm"
     inkscape:zoom="1.3113356"
     inkscape:cx="46.898751"
     inkscape:cy="289.39961"
     inkscape:window-width="2560"
     inkscape:window-height="1531"
     inkscape:window-x="0"
     inkscape:window-y="32"
     inkscape:window-maximized="1"
     inkscape:current-layer="layer1" /><defs
     id="defs1"><linearGradient
       id="linearGradient48"
       inkscape:collect="always"><stop
         style="stop-color:#f7b42d;stop-opacity:1;"
         offset="0"
         id="stop48" /><stop
         style="stop-color:#f7742d;stop-opacity:1;"
         offset="0.4872449"
         id="stop50" /><stop
         style="stop-color:#f79e2d;stop-opacity:1;"
         offset="1"
         id="stop49" /></linearGradient><linearGradient
       id="linearGradient45"
       inkscape:collect="always"><stop
         style="stop-color:#f7c22d;stop-opacity:1;"
         offset="0.27898672"
         id="stop45" /><stop
         style="stop-color:#f7742d;stop-opacity:1;"
         offset="0.48979592"
         id="stop47" /><stop
         style="stop-color:#f2e1ac;stop-opacity:1;"
         offset="0.87431616"
         id="stop46" /></linearGradient><linearGradient
       id="linearGradient40"
       inkscape:collect="always"><stop
         style="stop-color:#ffb100;stop-opacity:1;"
         offset="0"
         id="stop40" /><stop
         style="stop-color:#f6772d;stop-opacity:1;"
         offset="1"
         id="stop41" /></linearGradient><linearGradient
       id="linearGradient38"
       inkscape:collect="always"><stop
         style="stop-color:#f6772d;stop-opacity:1;"
         offset="0"
         id="stop38" /><stop
         style="stop-color:#f62d32;stop-opacity:1;"
         offset="1"
         id="stop39" /></linearGradient><linearGradient
       id="linearGradient35"
       inkscape:collect="always"><stop
         style="stop-color:#ec383a;stop-opacity:1;"
         offset="0"
         id="stop35" /><stop
         style="stop-color:#ec9a38;stop-opacity:1;"
         offset="1"
         id="stop36" /></linearGradient><linearGradient
       id="linearGradient33"
       inkscape:collect="always"><stop
         style="stop-color:#f98030;stop-opacity:1;"
         offset="0"
         id="stop33" /><stop
         style="stop-color:#f9bc30;stop-opacity:1;"
         offset="1"
         id="stop34" /></linearGradient><linearGradient
       id="linearGradient30"
       inkscape:collect="always"><stop
         style="stop-color:#ff2000;stop-opacity:1;"
         offset="0"
         id="stop30" /><stop
         style="stop-color:#f7812d;stop-opacity:1;"
         offset="0.49744898"
         id="stop32" /><stop
         style="stop-color:#f7b22d;stop-opacity:1;"
         offset="1"
         id="stop31" /></linearGradient><linearGradient
       id="linearGradient28"
       inkscape:collect="always"><stop
         style="stop-color:#f7442d;stop-opacity:1;"
         offset="0"
         id="stop28" /><stop
         style="stop-color:#f7812d;stop-opacity:1;"
         offset="1"
         id="stop29" /></linearGradient><linearGradient
       id="linearGradient25"
       inkscape:collect="always"><stop
         style="stop-color:#f9b72c;stop-opacity:1;"
         offset="0"
         id="stop25" /><stop
         style="stop-color:#ff8600;stop-opacity:1;"
         offset="0.99886149"
         id="stop26" /></linearGradient><linearGradient
       id="linearGradient22"
       inkscape:collect="always"><stop
         style="stop-color:#f78928;stop-opacity:1;"
         offset="0"
         id="stop23" /><stop
         style="stop-color:#f76728;stop-opacity:1;"
         offset="1"
         id="stop24" /></linearGradient><linearGradient
       id="linearGradient20"
       inkscape:collect="always"><stop
         style="stop-color:#e4860c;stop-opacity:1;"
         offset="0"
         id="stop20" /><stop
         style="stop-color:#f49e2b;stop-opacity:1;"
         offset="0.41083327"
         id="stop22" /><stop
         style="stop-color:#f4712b;stop-opacity:1;"
         offset="1"
         id="stop21" /></linearGradient><linearGradient
       id="linearGradient16"
       inkscape:collect="always"><stop
         style="stop-color:#e17235;stop-opacity:1;"
         offset="0.40583956"
         id="stop17" /><stop
         style="stop-color:#e13835;stop-opacity:1;"
         offset="0.6539188"
         id="stop16" /></linearGradient><linearGradient
       inkscape:collect="always"
       xlink:href="#linearGradient16"
       id="linearGradient17"
       x1="389.26019"
       y1="139.55196"
       x2="389.26019"
       y2="68.455948"
       gradientUnits="userSpaceOnUse"
       gradientTransform="translate(0.30265015,-0.35877634)" /><linearGradient
       inkscape:collect="always"
       xlink:href="#linearGradient20"
       id="linearGradient21"
       x1="352.66135"
       y1="124.08828"
       x2="410.17929"
       y2="124.08828"
       gradientUnits="userSpaceOnUse"
       gradientTransform="translate(1.3619231,-13.120495)" /><linearGradient
       inkscape:collect="always"
       xlink:href="#linearGradient22"
       id="linearGradient24"
       x1="379.4852"
       y1="101.56344"
       x2="395.37418"
       y2="101.56344"
       gradientUnits="userSpaceOnUse"
       gradientTransform="translate(-2.1185459,-6.0586743)" /><linearGradient
       inkscape:collect="always"
       xlink:href="#linearGradient25"
       id="linearGradient26"
       x1="357.07593"
       y1="111.04713"
       x2="413.82269"
       y2="111.04713"
       gradientUnits="userSpaceOnUse"
       gradientTransform="translate(-2.4716369,-9.2364935)" /><linearGradient
       inkscape:collect="always"
       xlink:href="#linearGradient28"
       id="linearGradient29"
       x1="431.43756"
       y1="80.208313"
       x2="439.24905"
       y2="80.208313"
       gradientUnits="userSpaceOnUse" /><linearGradient
       inkscape:collect="always"
       xlink:href="#linearGradient30"
       id="linearGradient31"
       x1="438.26163"
       y1="84.320961"
       x2="457.07809"
       y2="84.320961"
       gradientUnits="userSpaceOnUse"
       gradientTransform="translate(-5.0693784,-3.329144)" /><linearGradient
       inkscape:collect="always"
       xlink:href="#linearGradient33"
       id="linearGradient34"
       x1="440.45697"
       y1="94.804192"
       x2="440.45697"
       y2="90.01226"
       gradientUnits="userSpaceOnUse"
       gradientTransform="translate(-2.380811,-0.44584476)" /><linearGradient
       inkscape:collect="always"
       xlink:href="#linearGradient35"
       id="linearGradient36"
       x1="447.54126"
       y1="103.70419"
       x2="447.54126"
       y2="97.52829"
       gradientUnits="userSpaceOnUse"
       gradientTransform="translate(-2.9508322,-0.81967562)" /><linearGradient
       inkscape:collect="always"
       xlink:href="#linearGradient38"
       id="linearGradient39"
       x1="398.20844"
       y1="133.80264"
       x2="411.02319"
       y2="133.80264"
       gradientUnits="userSpaceOnUse"
       gradientTransform="translate(2.3455333,-2.5977412)" /><linearGradient
       inkscape:collect="always"
       xlink:href="#linearGradient40"
       id="linearGradient41"
       x1="396.64731"
       y1="126.72184"
       x2="396.64731"
       y2="110.32835"
       gradientUnits="userSpaceOnUse"
       gradientTransform="translate(-2.622962,0.07566236)" /><linearGradient
       inkscape:collect="always"
       xlink:href="#linearGradient45"
       id="linearGradient46"
       x1="412.97708"
       y1="143.241"
       x2="412.97708"
       y2="88.205902"
       gradientUnits="userSpaceOnUse"
       gradientTransform="translate(-114.86437,-184.55897)" /><linearGradient
       inkscape:collect="always"
       xlink:href="#linearGradient48"
       id="linearGradient49"
       x1="461.08151"
       y1="131.92036"
       x2="390.43338"
       y2="131.92036"
       gradientUnits="userSpaceOnUse"
       gradientTransform="translate(-144.2657,-207.4323)" /></defs><g
     inkscape:label="Layer 1"
     inkscape:groupmode="layer"
     id="layer1"
     transform="translate(-41.393588,-25.669028)"><rect
       style="fill:#ffffff;fill-opacity:1;stroke:#ffffff;stroke-width:0.1;stroke-linecap:round;stroke-dasharray:none;paint-order:markers stroke fill"
       id="rect52"
       width="138.61345"
       height="151.52649"
       x="41.443588"
       y="25.719028" /><text
       xml:space="preserve"
       style="font-size:24.5446px;line-height:0.5;text-align:start;letter-spacing:0.0920423px;word-spacing:0.00920423px;writing-mode:lr-tb;direction:ltr;text-anchor:start;fill:#193455;fill-opacity:1;stroke:#ffffff;stroke-width:0.306807;paint-order:markers stroke fill"
       x="49.854588"
       y="150.38559"
       id="text1"
       inkscape:export-filename="../7e31c16b/logo_vertical.png"
       inkscape:export-xdpi="600"
       inkscape:export-ydpi="600"><tspan
         sodipodi:role="line"
         id="tspan1"
         x="49.854588"
         y="150.38559"
         style="font-style:normal;font-variant:normal;font-weight:800;font-stretch:normal;font-size:24.5446px;line-height:0.5;font-family:'Open Sans';-inkscape-font-specification:'Open Sans Ultra-Bold';letter-spacing:0.0920423px;word-spacing:0.00920423px;fill:#193455;fill-opacity:1;stroke:#ffffff;stroke-width:0.306807;paint-order:markers stroke fill"
         dx="0.069575109">FLAMES</tspan></text><text
       xml:space="preserve"
       style="font-size:10.2269px;line-height:0.9;text-align:start;letter-spacing:0.0920423px;word-spacing:0.00920423px;writing-mode:lr-tb;direction:ltr;text-anchor:start;fill:#193455;fill-opacity:1;stroke:#ffffff;stroke-width:0.306807;paint-order:markers stroke fill"
       x="96.901283"
       y="163.07433"
       id="text1-4"><tspan
         sodipodi:role="line"
         id="tspan1-2"
         x="96.901283"
         y="163.07433"
         style="font-style:normal;font-variant:normal;font-weight:300;font-stretch:condensed;font-size:10.2269px;line-height:0.9;font-family:'Open Sans';-inkscape-font-specification:'Open Sans Light Condensed';text-align:center;letter-spacing:0.0920423px;word-spacing:0.00920423px;text-anchor:middle;fill:#193455;fill-opacity:1;stroke:#ffffff;stroke-width:0.306807;paint-order:markers stroke fill">Flexible Lattice Adsorption by</tspan><tspan
         sodipodi:role="line"
         x="96.947304"
         y="172.53526"
         style="font-style:normal;font-variant:normal;font-weight:300;font-stretch:condensed;font-size:10.2269px;line-height:0.9;font-family:'Open Sans';-inkscape-font-specification:'Open Sans Light Condensed';text-align:center;letter-spacing:0.0920423px;word-spacing:0.00920423px;text-anchor:middle;fill:#193455;fill-opacity:1;stroke:#ffffff;stroke-width:0.306807;paint-order:markers stroke fill"
         id="tspan2">Monte Carlo Engine Simulation</tspan></text><path
       style="fill:#193556;fill-opacity:1;stroke:#ffffff;stroke-width:0.5;stroke-dasharray:none;paint-order:markers stroke fill"
       d="m 84.376638,124.01952 c -0.29104,-0.29104 -0.52917,-0.64823 -0.52917,-0.79375 0,-0.14552 0.23813,-0.50271 0.52917,-0.79375 0.40569,-0.40569 0.88417,-0.52975 2.05052,-0.53164 l 1.52135,-0.002 0.62013,-2.04805 c 0.34108,-1.12642 1.01794,-2.91125 1.50414,-3.96627 l 0.88401,-1.91823 h 7.442767 7.442765 l 0.884,1.91823 c 0.48621,1.05502 1.16307,2.83985 1.50414,3.96627 l 0.62013,2.04805 1.64755,0.002 c 1.46404,0.002 1.69582,0.0761 2.08095,0.66393 0.40148,0.61274 0.40148,0.71018 0,1.32292 l -0.4334,0.66146 H 98.525755 c -13.267177,0 -13.633657,-0.0137 -14.149117,-0.52917 z m -31.80864,-11.96005 c -1.65449,-0.95908 -1.79344,-1.55761 -1.79344,-7.72525 v -5.450119 h 47.624997 47.624995 v 5.581569 c 0,6.29726 -0.11289,6.75131 -1.90769,7.67278 -0.95404,0.48981 -2.24116,0.50381 -45.772905,0.49791 l -44.791277,-0.006 z m 47.109247,-4.90714 c 0.986225,-0.84166 0.780765,-2.67704 -0.35775,-3.19579 -0.94389,-0.43006 -1.27313,-0.39222 -2.07488,0.23843 -0.92991,0.73147 -0.99011,2.39142 -0.1091,3.0085 0.7771,0.54431 1.86976,0.52232 2.54173,-0.0511 z M 50.774558,73.325649 c 0,-26.220305 -0.072,-24.988205 1.5301,-26.167591 0.71134,-0.523637 1.18961,-0.529881 45.770287,-0.597568 44.282475,-0.06723 45.068765,-0.05956 46.067235,0.449824 1.99324,1.016876 1.88237,-0.53304 1.88237,26.315335 V 97.296601 H 98.399555 50.774558 Z m 91.810402,-1.362903 1e-5,-22.026563 H 98.399555 54.214138 l -10e-6,22.026563 -2e-5,22.026563 h 44.185427 44.185405 z"
       id="path2" /><g
       id="g14"
       transform="matrix(1.0080578,0,0,1.0080578,-2.8768516,16.71084)"
       style="stroke-width:1.39675;stroke-dasharray:none"><path
         style="fill:#ffffff;fill-opacity:1;stroke:#193556;stroke-width:1.39675;stroke-linecap:round;stroke-dasharray:none"
         d="M 63.45682,43.978125 H 85.209846"
         id="path4"
         sodipodi:nodetypes="cc" /><path
         style="fill:none;fill-opacity:1;stroke:#193556;stroke-width:1.39675;stroke-linecap:round;stroke-dasharray:none"
         d="m 63.242298,47.404809 h 23.215396 l 1.35537,1.355367"
         id="path5"
         sodipodi:nodetypes="ccc" /><path
         style="fill:none;fill-opacity:1;stroke:#193556;stroke-width:1.39675;stroke-linecap:round;stroke-dasharray:none"
         d="m 64.228697,64.451319 h 22.514859 l 1.58721,-1.587209"
         id="path6"
         sodipodi:nodetypes="ccc" /><path
         style="fill:#ffffff;fill-opacity:1;stroke:#193556;stroke-width:1.39675;stroke-linecap:round;stroke-dasharray:none"
         d="M 64.228697,67.706589 H 85.081544"
         id="path7"
         sodipodi:nodetypes="cc" /><path
         style="fill:#ffffff;fill-opacity:1;stroke:#193556;stroke-width:1.39675;stroke-linecap:round;stroke-dasharray:none"
         d="m 118.52337,66.484369 h -2.71073"
         id="path8" /><path
         style="fill:none;fill-opacity:1;stroke:#193556;stroke-width:1.39675;stroke-linecap:round;stroke-dasharray:none"
         d="m 112.28154,62.95328 1.44454,1.444537 h 4.93996"
         id="path9" /><path
         style="fill:none;fill-opacity:1;stroke:#193556;stroke-width:1.39675;stroke-linecap:round;stroke-dasharray:none"
         d="m 112.21021,47.402215 1.39104,-1.391037 h 4.70812"
         id="path10" /><path
         style="fill:#ffffff;fill-opacity:1;stroke:#193556;stroke-width:1.39675;stroke-linecap:round;stroke-dasharray:none"
         d="m 115.6343,44.013794 h 2.92474"
         id="path11" /><path
         style="fill:none;fill-opacity:1;stroke:#193556;stroke-width:1.39675;stroke-linecap:round;stroke-dasharray:none"
         d="m 91.202006,49.292596 9.309234,-4.529783 8.88123,4.815123 v 11.484962 l -9.09523,4.208775 -9.095234,-4.458449 z"
         id="path12" /><path
         style="fill:none;fill-opacity:1;stroke:#193556;stroke-width:1.39675;stroke-linecap:round;stroke-dasharray:none"
         d="m 91.202006,49.470933 8.916894,4.101772 9.2379,-4.208774"
         id="path13" /><path
         style="fill:none;fill-opacity:1;stroke:#193556;stroke-width:1.39675;stroke-linecap:round;stroke-dasharray:none"
         d="M 100.29724,53.608374 V 65.093333"
         id="path14" /><circle
         style="fill:#ffffff;fill-opacity:1;stroke:#193556;stroke-width:1.39675;stroke-dasharray:none"
         id="path3-3"
         cx="100.32515"
         cy="53.589783"
         r="1.4243842" /><circle
         style="fill:#ffffff;fill-opacity:1;stroke:#193556;stroke-width:1.39675;stroke-dasharray:none"
         id="path3"
         cx="91.273331"
         cy="49.328262"
         r="1.4243842" /><circle
         style="fill:#ffffff;fill-opacity:1;stroke:#193556;stroke-width:1.39675;stroke-dasharray:none"
         id="path3-82"
         cx="65.841003"
         cy="43.727386"
         r="1.4243842" /><circle
         style="fill:#ffffff;fill-opacity:1;stroke:#193556;stroke-width:1.39675;stroke-dasharray:none"
         id="path3-82-0"
         cx="73.72065"
         cy="47.704975"
         r="1.4243842" /><circle
         style="fill:#ffffff;fill-opacity:1;stroke:#193556;stroke-width:1.39675;stroke-dasharray:none"
         id="path3-82-0-0"
         cx="69.334366"
         cy="64.512276"
         r="1.4243842" /><circle
         style="fill:#ffffff;fill-opacity:1;stroke:#193556;stroke-width:1.39675;stroke-dasharray:none"
         id="path3-82-0-01"
         cx="78.588669"
         cy="68.024597"
         r="1.4243842" /><circle
         style="fill:#ffffff;fill-opacity:1;stroke:#193556;stroke-width:1.39675;stroke-dasharray:none"
         id="path3-2"
         cx="91.221161"
         cy="60.867432"
         r="1.4243842" /><circle
         style="fill:#ffffff;fill-opacity:1;stroke:#193556;stroke-width:1.39675;stroke-dasharray:none"
         id="path3-6"
         cx="100.38333"
         cy="44.941856"
         r="1.4243842" /><circle
         style="fill:#ffffff;fill-opacity:1;stroke:#193556;stroke-width:1.39675;stroke-dasharray:none"
         id="path3-8"
         cx="109.43999"
         cy="49.294762"
         r="1.4243842" /><circle
         style="fill:#ffffff;fill-opacity:1;stroke:#193556;stroke-width:1.39675;stroke-dasharray:none"
         id="path3-80"
         cx="109.3555"
         cy="60.862759"
         r="1.4243842" /><circle
         style="fill:#ffffff;fill-opacity:1;stroke:#193556;stroke-width:1.39675;stroke-dasharray:none"
         id="path3-0"
         cx="100.33275"
         cy="65.179405"
         r="1.4243842" /></g><g
       id="g52"
       transform="translate(-159.24333,136.00886)"
       style="stroke:#ffffff;stroke-width:0.1;stroke-dasharray:none;paint-order:markers stroke fill"><g
         id="g51"
         style="stroke:#ffffff;stroke-width:0.1;stroke-dasharray:none;paint-order:markers stroke fill"><path
           style="fill:#1089eb;fill-opacity:1;stroke:#ffffff;stroke-width:0.1;stroke-linecap:round;stroke-dasharray:none;paint-order:markers stroke fill"
           d="m 245.50411,-49.053086 c 0,0 7.32412,7.16231 22.19751,3.20321 14.87337,-3.95911 12.876,-10.0226 19.6885,-11.12829 6.81251,-1.1057 8.52455,2.24706 14.55237,-1.99738 6.02782,-4.24445 6.24184,-7.95388 6.24184,-7.95388 0,0 -10.45062,12.12698 -14.51671,2.17573 -4.06612,-9.95126 13.69634,-6.06349 22.57758,-10.66461 8.88122,-4.60112 12.23397,-14.017363 14.87337,-15.979083 2.6394,-1.96172 4.6368,-2.7464 4.6368,-2.7464 0,0 -5.6355,-0.856021 -9.63025,5.029129 -3.99476,5.885154 -12.94734,9.344914 -10.1296,5.20746 2.81773,-4.13744 2.7464,-4.672449 3.03175,-6.741169 0.28533,-2.06872 0.214,-3.24575 0.107,-3.10308 -0.107,0.14267 -0.60635,6.455829 -6.4915,10.236603 -5.88515,3.78076 -20.72286,5.1718 -27.14302,16.90643 -6.42017,11.73464 -9.30926,15.65807 -21.75725,18.65415 -12.44798,2.99607 -18.23839,-1.09882 -18.23839,-1.09882 z"
           id="path42-2" /><path
           style="fill:#1089eb;fill-opacity:1;stroke:#ffffff;stroke-width:0.1;stroke-linecap:round;stroke-dasharray:none;paint-order:markers stroke fill"
           d="m 246.60749,-49.465076 c 0,0 9.43258,5.39725 19.42002,2.11855 9.98744,-3.2787 18.61294,-15.48557 25.473,-21.03414 6.86004,-5.54857 13.36702,-8.92816 14.98113,-9.73522 1.61415,-0.80707 1.26106,-2.77429 1.26106,-2.77429 0,0 -10.44141,2.62296 -9.93701,-0.90795 0.50443,-3.530912 3.884,-4.489301 8.97861,-4.085771 5.0946,0.40353 9.12992,-2.82473 9.88655,-6.10343 0.75663,-3.278701 1.06246,-7.148671 -1.30945,-9.823743 -2.37188,-2.67507 -2.58588,-2.55024 -2.58588,-2.55024 0,0 4.72594,6.509342 -1.40888,10.414943 -6.13481,3.9056 -7.56152,-2.550231 -6.08131,-4.351451 1.48018,-1.801212 1.62287,-3.013912 3.92343,-3.424082 2.30055,-0.41018 2.71073,-0.23184 2.71073,-0.23184 0,0 -6.45583,-2.24706 -9.73725,2.193552 -3.28141,4.44061 -6.95518,8.506721 -6.95518,8.506721 0,0 1.89767,7.311581 -1.608,13.919421 -3.50571,6.60785 -6.68351,10.51707 -9.28127,11.34936 -2.59773,0.83228 -6.45652,7.66712 -8.72638,9.33169 -2.26986,1.66457 -2.8906,3.63518 -7.06369,5.5969 -4.17311,1.96171 -8.09654,3.38842 -13.30402,3.03174 -5.20747,-0.35668 -5.92081,-0.24967 -7.45452,-1.07003 -1.53372,-0.82035 -1.18169,-0.37069 -1.18169,-0.37069 z"
           id="path48-6" /><path
           style="fill:url(#linearGradient49);stroke:#ffffff;stroke-width:0.1;stroke-linecap:round;stroke-dasharray:none;paint-order:markers stroke fill"
           d="m 246.20253,-49.651047 c 0,0 9.43258,5.39725 19.42002,2.11855 9.98744,-3.2787 18.61294,-15.48557 25.473,-21.03414 6.86004,-5.54857 13.36702,-8.92816 14.98113,-9.73522 1.61415,-0.80707 1.26106,-2.77429 1.26106,-2.77429 0,0 -10.44141,2.62296 -9.93701,-0.90795 0.50443,-3.530912 3.884,-4.489302 8.97861,-4.085772 5.0946,0.40353 9.12992,-2.82473 9.88655,-6.10343 0.75663,-3.2787 1.06246,-7.14867 -1.30945,-9.823741 -2.37188,-2.67507 -2.58588,-2.55024 -2.58588,-2.55024 0,0 4.72594,6.509341 -1.40888,10.414941 -6.13481,3.9056 -7.56152,-2.55023 -6.08131,-4.35145 1.48018,-1.801211 1.62287,-3.013911 3.92343,-3.424081 2.30055,-0.41018 2.71073,-0.23184 2.71073,-0.23184 0,0 -6.45583,-2.24706 -9.73725,2.193551 -3.28141,4.44061 -6.95518,8.50672 -6.95518,8.50672 0,0 1.89767,7.311582 -1.608,13.919422 -3.50571,6.60785 -6.68351,10.51707 -9.28127,11.34936 -2.59773,0.83228 -6.45652,7.66712 -8.72638,9.33169 -2.26986,1.66457 -2.8906,3.63518 -7.06369,5.5969 -4.17311,1.96171 -8.09654,3.38842 -13.30402,3.03174 -5.20747,-0.35668 -5.92081,-0.24967 -7.45452,-1.07003 -1.53372,-0.82035 -1.18169,-0.37069 -1.18169,-0.37069 z"
           id="path48" /><path
           style="fill:#df3537;fill-opacity:1;stroke:#ffffff;stroke-width:0.1;stroke-linecap:round;stroke-dasharray:none;paint-order:markers stroke fill"
           d="m 245.22017,-49.695757 c 0,0 7.32412,7.16231 22.19751,3.20321 14.87337,-3.95911 12.876,-10.0226 19.6885,-11.12829 6.81251,-1.1057 8.52455,2.24706 14.55237,-1.99738 6.02782,-4.24445 6.24184,-7.95388 6.24184,-7.95388 0,0 -10.45062,12.12698 -14.51671,2.17573 -4.06612,-9.95126 13.69634,-6.06349 22.57758,-10.66461 8.88122,-4.60112 12.23397,-14.017364 14.87337,-15.979084 2.6394,-1.96172 4.6368,-2.7464 4.6368,-2.7464 0,0 -5.6355,-0.85602 -9.63025,5.02913 -3.99476,5.885154 -12.94734,9.344914 -10.1296,5.20746 2.81773,-4.13744 2.7464,-4.67245 3.03175,-6.74117 0.28533,-2.06872 0.214,-3.24575 0.107,-3.10308 -0.107,0.14267 -0.60635,6.45583 -6.4915,10.236604 -5.88515,3.78076 -20.72286,5.1718 -27.14302,16.90643 -6.42017,11.73464 -9.30926,15.65807 -21.75725,18.65415 -12.44798,2.99607 -18.23839,-1.09882 -18.23839,-1.09882 z"
           id="path42" /><path
           style="fill:#f7742d;fill-opacity:1;stroke:#ffffff;stroke-width:0.1;stroke-linecap:round;stroke-dasharray:none;paint-order:markers stroke fill"
           d="m 290.62029,-64.508867 c 0,0 -0.67026,2.50372 2.6841,3.76476 3.35436,1.26104 4.08957,0.71552 3.52022,0.97675 -1.42064,0.65182 -6.97743,0.10821 -8.23981,0.59179 -1.54818,0.59306 0.1,-0.83814 0.88112,-2.19836 0.78116,-1.36022 0.44794,-2.6876 1.15425,-3.13494 0.70631,-0.44734 1.2e-4,0 1.2e-4,0 z"
           id="path43"
           sodipodi:nodetypes="cssszzc" /><path
           style="fill:url(#linearGradient46);stroke:#ffffff;stroke-width:0.1;stroke-linecap:round;stroke-dasharray:none;paint-order:markers stroke fill"
           d="m 270.59517,-49.699847 c 0,0 9.55892,-3.63809 15.76507,-17.0491 6.20617,-13.41101 23.0056,-12.94733 25.18132,-13.05433 2.17572,-0.10701 7.59719,-2.24706 8.48887,-3.10308 0.8917,-0.85603 5.59982,-5.064814 5.59982,-5.064814 l -4.38711,4.957804 c 0,0 -8.77424,5.59981 -20.22353,6.20616 -11.44929,0.60635 -15.33705,16.40709 -16.15741,17.40578 -0.82034,0.99869 -5.49281,7.56153 -14.26703,9.70158 z"
           id="path45" /><path
           style="fill:#f7742d;fill-opacity:1;stroke:#ffffff;stroke-width:0.1;stroke-linecap:round;stroke-dasharray:none;paint-order:markers stroke fill"
           d="m 293.57986,-70.978487 c 0,0 4.42277,-7.73986 14.23135,-8.13221 9.80858,-0.39234 16.81726,-7.864704 16.81726,-7.864704 0,0 -5.01128,7.775534 -13.10782,9.041744 -8.09655,1.26619 -14.80204,2.24705 -17.94079,6.95517 z"
           id="path47" /><g
           id="g44"
           transform="translate(-114.70694,-184.33006)"
           style="stroke:#ffffff;stroke-width:0.1;stroke-dasharray:none;paint-order:markers stroke fill"><path
             style="fill:#e13835;fill-opacity:1;stroke:#ffffff;stroke-width:0.1;stroke-linecap:round;stroke-dasharray:none;paint-order:markers stroke fill"
             d="m 398.95184,87.133495 1.53844,0.201766 c 0,0 1.63936,-2.673403 3.85879,-3.177821 2.21943,-0.504415 2.6734,-0.580077 2.6734,-0.580077 0,0 -2.77429,-0.630518 -5.01893,0.277428 -2.24465,0.90795 -3.0517,3.278704 -3.0517,3.278704 z"
             id="path17" /><path
             style="fill:#1089eb;fill-opacity:1;stroke:#ffffff;stroke-width:0.1;stroke-linecap:round;stroke-dasharray:none;paint-order:markers stroke fill"
             d="m 353.87104,124.86271 c 0,0 -1.97767,-24.75427 26.15396,-21.68987 18.01681,1.96259 25.40579,2.62941 31.29095,-10.817254 4.6395,-10.600538 13.55367,-10.985609 13.55367,-10.985609 0,0 -7.26251,-1.961698 -21.25786,12.198309 -9.09523,9.202224 -25.54995,4.5437 -21.04388,2.46106 4.24445,-1.96171 7.02652,0.71335 11.16396,-1.03435 6.49603,-2.74401 5.06479,-7.16919 5.06479,-7.16919 0,0 -3.06739,6.02782 -13.62501,4.03044 -10.55762,-1.99739 -9.27357,5.4928 -9.27357,5.4928 0,0 -23.83051,-1.18475 -22.02701,27.513664 z"
             id="path16-3"
             sodipodi:nodetypes="csscssscscc" /><path
             style="fill:url(#linearGradient21);stroke:#ffffff;stroke-width:0.1;stroke-linecap:round;stroke-dasharray:none;paint-order:markers stroke fill"
             d="m 354.09988,124.13102 c 0,0 -1.66155,-18.29879 10.49184,-20.07574 13.97233,-2.04289 16.06565,0.75662 25.92697,2.77428 7.78372,1.59258 13.71065,1.06888 17.38442,-3.31823 3.67376,-4.387104 3.6381,-5.706804 3.6381,-5.706804 0,0 -0.69231,7.878384 -8.06088,10.093914 -11.67939,3.51168 -18.15481,-0.67768 -21.04387,-0.60635 -2.88909,0.0713 1.14136,1.49804 1.14136,1.49804 0,0 5.20748,2.60373 9.38056,2.14005 4.17312,-0.46368 3.03176,-0.24967 3.03176,-0.24967 0,0 -6.73816,3.77465 -14.26702,-0.0357 -18.96133,-9.59631 -26.4631,-0.33481 -27.62324,13.48618 z"
             id="path18"
             sodipodi:nodetypes="cssscsscscssc" /><path
             style="fill:url(#linearGradient17);stroke:#ffffff;stroke-width:0.1;stroke-linecap:round;stroke-dasharray:none;paint-order:markers stroke fill"
             d="m 354.1123,125.43771 c 0,0 -1.97767,-24.75427 26.15396,-21.68987 18.01681,1.96259 25.40579,2.62941 31.29095,-10.817254 4.6395,-10.600539 13.55367,-10.98561 13.55367,-10.98561 0,0 -7.26251,-1.961698 -21.25786,12.19831 -9.09523,9.202224 -25.54995,4.5437 -21.04388,2.46106 4.24445,-1.96171 7.02652,0.71335 11.16396,-1.03435 6.49603,-2.74401 5.06479,-7.16919 5.06479,-7.16919 0,0 -3.06739,6.02782 -13.62501,4.03044 -10.55762,-1.99739 -9.27357,5.4928 -9.27357,5.4928 0,0 -23.83051,-1.18475 -22.02701,27.513664 z"
             id="path16"
             sodipodi:nodetypes="csscssscscc" /><path
             style="fill:url(#linearGradient24);stroke:#ffffff;stroke-width:0.1;stroke-linecap:round;stroke-dasharray:none;paint-order:markers stroke fill"
             d="m 377.36667,97.965826 3.01392,0.14267 c 0,0 -0.64202,-2.78207 2.92473,-3.49542 3.56677,-0.71336 5.45713,0.33884 7.91821,-0.65986 2.46107,-0.99869 1.99739,-1.05219 1.99739,-1.05219 0,0 -3.12091,0.55285 -6.86602,0.33884 -3.74509,-0.214 -6.3845,0.41018 -8.98823,4.72596 z"
             id="path22" /><path
             style="fill:url(#linearGradient26);stroke:#ffffff;stroke-width:0.1;stroke-linecap:round;stroke-dasharray:none;paint-order:markers stroke fill"
             d="m 411.35107,87.460006 c 0,0 -1.76547,10.44141 -14.1741,12.711274 -12.40862,2.26987 -13.19867,-1.963964 -27.33932,1.51324 -12.30777,3.0265 -15.23335,14.47674 -15.23335,14.47674 0,0 1.86631,-14.82983 15.23335,-16.191744 13.36702,-1.36192 16.89791,1.967214 26.53226,-1.10971 9.63435,-3.07694 14.98116,-11.3998 14.98116,-11.3998 z"
             id="path24"
             sodipodi:nodetypes="csscssc" /><path
             style="fill:#f7812d;fill-opacity:1;stroke:#ffffff;stroke-width:0.1;stroke-linecap:round;stroke-dasharray:none;paint-order:markers stroke fill"
             d="m 411.15234,84.97775 2.169,-1.437584 c 0,0 -0.15024,-0.427046 0.92804,-2.111378 0.78148,-1.220721 2.27498,-1.671741 2.27498,-1.671741 0,0 -4.37369,-0.863841 -5.37202,5.220703 z"
             id="path27"
             sodipodi:nodetypes="ccscc" /><path
             style="fill:url(#linearGradient29);fill-opacity:1;stroke:#ffffff;stroke-width:0.1;stroke-linecap:round;stroke-dasharray:none;paint-order:markers stroke fill"
             d="m 439.24904,79.876018 c 0,0 -2.46105,-2.291644 -4.44952,-1.613959 -1.98848,0.677683 -2.69291,1.471289 -3.10309,2.568065 -0.0699,0.186761 -0.96277,2.629771 1.03436,0.731186 1.72859,-1.643288 3.67377,-1.587208 6.51825,-1.685292 z"
             id="path28"
             sodipodi:nodetypes="csssc" /><path
             style="fill:url(#linearGradient31);stroke:#ffffff;stroke-width:0.1;stroke-linecap:round;stroke-dasharray:none;paint-order:markers stroke fill"
             d="m 433.19226,87.490913 c 0,0 0.7566,-5.170263 5.90166,-5.926886 5.14504,-0.756624 6.68351,0.453974 9.93698,-2.547298 3.25348,-3.001274 3.27869,-7.31403 2.67341,-2.042885 -0.60529,5.271146 -4.38841,7.6419 -7.59145,7.818446 -3.20305,0.176543 -8.49943,-1.916782 -10.9206,2.698623 z"
             id="path29" /><path
             style="fill:#f8bc23;fill-opacity:1;stroke:#ffffff;stroke-width:0.1;stroke-linecap:round;stroke-dasharray:none;paint-order:markers stroke fill"
             d="m 437.88332,83.20338 c 0,0 3.30393,-1.034052 6.15389,-1.084495 2.84993,-0.05044 6.15386,-3.858781 6.15386,-3.858781 0,0 -1.0845,4.817171 -5.67468,5.018937 -4.59017,0.201766 -4.28754,-0.529635 -6.63307,-0.07566 z"
             id="path32" /><path
             style="fill:url(#linearGradient34);stroke:#ffffff;stroke-width:0.1;stroke-linecap:round;stroke-dasharray:none;paint-order:markers stroke fill"
             d="m 440.47213,88.128819 c 0,0 -2.9473,0.477664 -3.00127,3.581353 -0.0544,3.130662 -1.79068,4.085767 -1.79068,4.085767 0,0 2.67623,-0.560136 3.40482,-1.916779 1.02998,-1.917831 -0.67559,-2.552369 1.38713,-5.750341 z"
             id="path33"
             sodipodi:nodetypes="cscsc" /><path
             style="fill:url(#linearGradient36);stroke:#ffffff;stroke-width:0.1;stroke-linecap:round;stroke-dasharray:none;paint-order:markers stroke fill"
             d="m 441.50251,103.48089 c 0,0 3.61919,-0.49181 4.71628,-1.97983 1.0971,-1.48803 2.31614,-5.169394 0.6179,-5.372026 -2.21943,-0.264819 -1.25147,2.656201 -2.67339,4.968496 -1.34931,2.1942 -2.66079,2.38336 -2.66079,2.38336 z"
             id="path34"
             sodipodi:nodetypes="csssc" /><path
             style="fill:#f6772d;fill-opacity:1;stroke:#ffffff;stroke-width:0.1;stroke-linecap:round;stroke-dasharray:none;paint-order:markers stroke fill"
             d="m 417.13923,114.27539 c 0,0 -3.7007,0.78919 -3.84618,2.96344 -0.22699,3.39219 -0.78184,3.24087 -0.78184,3.24087 0,0 2.15638,-0.31525 2.83734,-2.00505 0.68096,-1.68979 -0.7062,-2.26987 1.79068,-4.19926 z"
             id="path36"
             sodipodi:nodetypes="cscsc" /><path
             style="fill:#f6772d;fill-opacity:1;stroke:#ffffff;stroke-width:0.1;stroke-linecap:round;stroke-dasharray:none;paint-order:markers stroke fill"
             d="m 419.83784,114.40149 c 0,0 5.87645,0.75663 8.82729,-1.10971 2.95082,-1.86634 6.53217,-4.80456 6.53217,-4.80456 0,0 -5.51074,3.63179 -9.16776,3.94705 -3.65699,0.31526 -5.13242,1.27365 -6.1917,1.96722 z"
             id="path37" /><path
             style="fill:url(#linearGradient39);stroke:#ffffff;stroke-width:0.1;stroke-linecap:round;stroke-dasharray:none;paint-order:markers stroke fill"
             d="m 400.55655,133.03966 c -0.0757,0 1.51326,-2.93822 4.38841,-2.87517 2.87517,0.0631 4.35059,1.50064 5.81341,1.00882 2.36428,-0.79489 2.61034,-1.96721 2.61034,-1.96721 0,0 -0.10396,4.02282 -5.29635,3.99749 -2.58513,-0.0126 -1.99245,-1.71501 -7.51581,-0.16393 z"
             id="path38"
             sodipodi:nodetypes="csscsc" /><path
             style="fill:#f6772d;fill-opacity:1;stroke:#ffffff;stroke-width:0.1;stroke-linecap:round;stroke-dasharray:none;paint-order:markers stroke fill"
             d="m 398.79921,116.95399 c 0,0 -1.08786,-0.0268 0.0535,-2.98716 1.14136,-2.96041 3.95909,-2.0598 3.95909,-2.0598 0,0 -2.31838,0.69552 -2.97822,2.4789 -0.65985,1.78338 -0.35669,2.54131 -1.03437,2.56806 z"
             id="path39" /><path
             style="fill:url(#linearGradient41);stroke:#ffffff;stroke-width:0.1;stroke-linecap:round;stroke-dasharray:none;paint-order:markers stroke fill"
             d="m 385.82761,127.28931 c 0,0 2.95084,-1.23581 4.99372,-4.08576 2.04287,-2.84995 2.08461,-6.7003 4.0101,-8.90294 3.32915,-3.80834 7.38968,-4.38842 7.38968,-4.38842 0,0 -4.99369,2.21943 -6.40606,7.21315 -1.41237,4.99372 -2.62298,6.15387 -4.59018,7.86888 -1.96723,1.71502 -5.39726,2.29509 -5.39726,2.29509 z"
             id="path40"
             sodipodi:nodetypes="csscssc" /><path
             style="fill:#fea631;fill-opacity:1;stroke:#ffffff;stroke-width:0.1;stroke-linecap:round;stroke-dasharray:none;paint-order:markers stroke fill"
             d="m 425.68907,85.195823 c 0,0 -1.99244,0.151323 -2.91301,1.424974 -0.92054,1.273649 -0.59269,2.950832 1.29887,1.778063 1.89156,-1.172765 1.61414,-3.203037 1.61414,-3.203037 z"
             id="path41" /></g><path
           style="fill:#ffc900;fill-opacity:1;stroke:#ffffff;stroke-width:0.1;stroke-linecap:round;stroke-dasharray:none;paint-order:markers stroke fill"
           d="m 297.25369,-84.837175 c 0,0 -0.0357,-2.710736 8.34622,-4.636786 8.38187,-1.926048 8.66723,-6.384496 8.98822,-7.20485 0.32102,-0.820354 0.21402,-2.461064 0.21402,-2.461064 0,0 1.64071,3.031743 -0.7847,6.313161 -2.42538,3.281419 -4.88646,4.244444 -9.02388,4.708121 -4.13745,0.463679 -6.52717,1.64071 -7.73988,3.281418 z"
           id="path50" /><path
           style="fill:#ffba00;fill-opacity:1;stroke:#ffffff;stroke-width:0.1;stroke-linecap:round;stroke-dasharray:none;paint-order:markers stroke fill"
           d="m 305.77824,-101.06592 c 0,0 -3.67376,3.620256 -3.79859,5.492802 -0.12483,1.872549 0.73117,2.978246 1.46238,3.406254 0.73117,0.428011 1.48021,0.891691 1.48021,0.891691 0,0 -3.5846,-0.445844 -5.59983,0.249674 -2.01523,0.695516 -3.21008,2.710736 -2.10439,-0.231841 1.10569,-2.942574 2.7464,-6.437998 5.35014,-8.096541 2.60374,-1.658539 3.21008,-1.712039 3.21008,-1.712039 z"
           id="path51" /></g><path
         d="m 302.56998,-88.779161 c 0.39696,-0.134264 0.83859,-0.221272 0.9814,-0.19334 0.14282,0.02793 -0.0652,0.160643 -0.46208,0.29491 -0.39696,0.134274 -0.83859,0.221282 -0.9814,0.19335 -0.14282,-0.02793 0.0652,-0.160643 0.46208,-0.29492 z"
         style="fill:#000000;stroke:#ffffff;stroke-width:0.1;stroke-dasharray:none;paint-order:markers stroke fill"
         id="path1-5" /><path
         d="m 283.76565,-86.140015 c 0.3638,-0.20796 0.78052,-0.37812 0.92604,-0.37812 0.14552,0 -0.0331,0.17016 -0.39688,0.37812 -0.3638,0.20797 -0.78052,0.37813 -0.92604,0.37813 -0.14552,0 0.0331,-0.17016 0.39688,-0.37813 z m 1.32291,-0.48614 c 0,-0.0696 0.78186,-0.55628 1.73746,-1.08155 2.32006,-1.27526 4.18481,-2.67743 6.05601,-4.55371 l 1.54708,-1.55128 -0.60095,0.87914 c -0.33053,0.48353 -1.46427,1.61462 -2.51944,2.51354 l -1.91848,1.6344 -2.15084,1.143 c -1.18296,0.62864 -2.15084,1.08605 -2.15084,1.01646 z m 4.7625,-0.26764 c 0,-0.0611 0.31232,-0.3158 0.69404,-0.56592 l 0.69403,-0.45475 -0.1796,0.29061 c -0.18877,0.30543 -1.20847,0.92146 -1.20847,0.73006 z m 2.52726,-2.02411 c 0.57736,-0.65484 1.32494,-1.54781 1.66128,-1.98437 l 0.61153,-0.79375 -0.47397,0.86203 c -0.26068,0.47412 -1.00825,1.36708 -1.66127,1.98437 l -1.18731,1.12234 z m 5.41024,-5.20006 c 0,-0.41984 1.95913,-3.34825 2.53405,-3.78777 l 0.50866,-0.38886 -0.57668,0.65345 c -0.31717,0.3594 -1.00178,1.36082 -1.52135,2.22538 -0.51957,0.86457 -0.94468,1.44857 -0.94468,1.2978 z"
         style="fill:#000000;stroke:#ffffff;stroke-width:0.1;stroke-dasharray:none;paint-order:markers stroke fill"
         id="path1"
         sodipodi:nodetypes="sssssssscsscsssscsssscsscssscsss" /><path
         d="m 244.04277,-78.152787 c 2.73155,-3.667928 7.84264,-6.294663 10.82063,-6.203073 l 0.66145,0.0203 -1.76634,0.47117 c -3.77191,1.00617 -5.84171,1.923515 -8.85457,5.06072 l -1.67645,1.745643 z m 11.95014,-6.413853 c 0.25743,-0.0671 0.61462,-0.0627 0.79375,0.01 0.17913,0.0725 -0.0315,0.12737 -0.46806,0.12197 l -0.79375,-0.01 z m 8.06476,0.008 c 0.1819,-0.0734 0.47955,-0.0734 0.66145,0 l 0.33073,0.13346 h -0.66146 -0.66145 z m -2.77813,-0.27886 c 0.40018,-0.0606 1.05503,-0.0606 1.45521,0 l 0.7276,0.11022 h -1.45521 -1.4552 z m 1.40305,-2.12942 c 0.15321,-0.10691 0.61818,-0.64657 1.03325,-1.19924 0.41508,-0.55267 0.99543,-1.1337 1.28967,-1.29117 l 0.53497,-0.28631 -1.30364,1.48627 c -0.71701,0.81744 -1.42272,1.48594 -1.56824,1.48555 l -0.26458,-7.1e-4 z m 3.82247,-3.34108 c 0,-0.0572 0.18478,-0.17489 0.41062,-0.26155 l 0.41061,-0.15757 -0.16164,0.26155 c -0.15538,0.25141 -0.65959,0.37186 -0.65959,0.15757 z"
         style="fill:#000000;stroke:#ffffff;stroke-width:0.1;stroke-dasharray:none;paint-order:markers stroke fill"
         id="path1-4"
         sodipodi:nodetypes="sscsscsscccssscccssscccsssscsscssscss" /><path
         d="m 290.2765,-71.323506 c 0.3638,-0.41031 1.01864,-0.99178 1.4552,-1.29215 0.94324,-0.64896 0.6896,-0.37064 -0.92604,1.01619 l -1.19062,1.022 z m 3.80777,-1.07139 c 0.71182,-0.67753 1.54526,-1.35268 1.85208,-1.50033 l 0.55785,-0.26845 -0.79375,0.60954 c -0.43656,0.33525 -1.27,1.0104 -1.85208,1.50033 l -1.05833,0.8908 z m -3.54319,-0.78113 c 0,-0.0549 0.20836,-0.2633 0.46302,-0.46302 l 0.46302,-0.36313 -0.36312,0.46302 c -0.34565,0.44073 -0.56292,0.58089 -0.56292,0.36313 z m 2.91042,-0.53209 c 0,-0.18233 1.86629,-1.29408 1.98056,-1.17982 0.0553,0.0554 -0.36763,0.37015 -0.93996,0.69954 -0.57233,0.32939 -1.0406,0.54552 -1.0406,0.48028 z m -1.85209,-0.26166 c 0,-0.0549 0.20836,-0.2633 0.46302,-0.46302 l 0.46302,-0.36313 -0.36312,0.46302 c -0.34564,0.44073 -0.56292,0.58089 -0.56292,0.36313 z m 5.02709,-0.30284 c 0,-0.22753 3.25277,-1.71605 3.70416,-1.69508 0.21828,0.0101 -0.0263,0.17435 -0.54363,0.36492 -0.51728,0.19057 -1.44001,0.60132 -2.05052,0.91278 -0.61051,0.31146 -1.11001,0.49928 -1.11001,0.41738 z m -3.175,-1.06523 c 0,-0.94521 7.17433,-3.021406 13.63723,-3.946526 l 4.59775,-0.65814 1.64486,-0.55411 c 3.77784,-1.27266 6.33115,-2.72281 8.8106,-5.00394 l 1.30608,-1.201607 -0.39735,0.584467 c -1.24118,1.82568 -6.31937,5.0128 -9.75542,6.12259 l -1.7198,0.55546 -4.23333,0.55494 c -7.00708,0.91854 -9.67368,1.56394 -12.6105,3.052136 -0.70407,0.35678 -1.28012,0.57941 -1.28012,0.49473 z m 3.175,-0.11954 c 0.21828,-0.14106 0.51593,-0.25648 0.66145,-0.25648 0.14553,0 0.086,0.11542 -0.13229,0.25648 -0.21828,0.14107 -0.51593,0.25648 -0.66146,0.25648 -0.14552,0 -0.086,-0.11541 0.1323,-0.25648 z m 1.85208,-0.66146 c 0.50932,-0.19613 1.16417,-0.35771 1.45521,-0.35904 l 0.52916,-0.002 -1.19062,0.37516 c -1.49526,0.47114 -2.02884,0.46195 -0.79375,-0.0137 z m 21.57206,-5.847426 c 0.73229,-0.71298 1.74432,-1.78106 2.24896,-2.37353 0.50463,-0.59247 0.79951,-0.89013 0.65527,-0.66146 -0.66078,1.04756 -2.4233,2.99543 -3.28534,3.63082 l -0.95033,0.70048 z"
         style="fill:#000000;stroke:#ffffff;stroke-width:0.1;stroke-dasharray:none;paint-order:markers stroke fill"
         id="path1-46" /><path
         d="m 273.85114,-51.729707 c 0.14552,-0.14043 0.91943,-0.69816 1.71979,-1.2394 l 1.45521,-0.98408 -0.83978,0.73879 c -0.78383,0.68956 -2.91601,2.04516 -2.33522,1.48469 z m 3.04271,-0.40604 c 0,-0.0648 0.56554,-0.51441 1.25677,-0.99907 0.69122,-0.48465 1.97114,-1.48188 2.84427,-2.21605 0.87312,-0.73418 1.34937,-1.05916 1.05833,-0.72219 -0.88031,1.01925 -5.15937,4.28475 -5.15937,3.93731 z m -1.30991,-1.691893 c 0.14552,-0.15066 1.2738,-0.969943 2.23634,-2.008198 l 1.28364,-1.384618 -0.9121,1.216016 c -0.40582,0.541039 -3.36253,2.95812 -2.60788,2.1768 z m 7.13074,-3.378077 c 0,-0.0549 0.20836,-0.2633 0.46302,-0.46302 l 0.46302,-0.36313 -0.36312,0.46302 c -0.34565,0.44073 -0.56292,0.58089 -0.56292,0.36313 z m 5.29167,-2.11667 c 0,-0.0549 0.20836,-0.2633 0.46302,-0.46302 l 0.46302,-0.36312 -0.36313,0.46302 c -0.34564,0.44073 -0.56291,0.58088 -0.56291,0.36312 z m 3.935,-2.21521 -0.36313,-0.46302 0.46302,0.36313 c 0.44073,0.34564 0.58089,0.56292 0.36313,0.56292 -0.0549,0 -0.2633,-0.20836 -0.46302,-0.46303 z"
         style="fill:#000000;stroke:#ffffff;stroke-width:0.1;stroke-dasharray:none;paint-order:markers stroke fill"
         id="path1-9"
         sodipodi:nodetypes="sscssssssssscsssscsssscssscsss" /><path
         d="m 304.24711,-89.121496 c 0,-0.0696 0.85273,-0.165061 1.87344,-0.548765 3.72447,-1.400097 5.7956,-2.713138 6.66459,-3.713293 0.86899,-1.000155 1.2974,-1.671658 1.2974,-1.671658 l -0.64553,1.119896 c -0.2925,0.50744 -1.27735,1.684878 -2.47932,2.375329 0,0 -1.23416,0.69687 -1.9586,1.036968 -0.72445,0.340097 -2.46516,0.917848 -2.46516,0.917848 -1.12142,0.417534 -2.28682,0.553265 -2.28682,0.483675 z"
         style="fill:#000000;stroke:#ffffff;stroke-width:0.1;stroke-dasharray:none;paint-order:markers stroke fill"
         id="path1-0"
         sodipodi:nodetypes="sszcsszss" /></g></g></svg>
